<svg xmlns="http://www.w3.org/2000/svg" viewBox="0 0 370.4 96.8"><title>logo-dark</title><path d="M48.3 8.3l6.2 6.1s.7 23 1.7 11c1.6-18.5-7.9-17.1-7.9-17.1zM41.3 21c-.7 15.6 4.3 12.3 4.3 12.3l-2.2-2.7c0-.1-1.8-16.1-2.1-9.6zM48.3 0a48.3 48.3 0 1 0 48.3 48.3A48.27 48.27 0 0 0 48.3 0zm2.2 36.4c.2 5.8 2 37.2 2 43.3-.1 6.5.3 8.1-3.4 8.1-3.1 0-3.4-2.6-2.8-8.1.3-3.6 1.2-37 1.3-43.2-8.8-.3-8.8-6.8-8.8-14.7 0-8.1 3.9-16.4 9.5-16.4 6 0 9.5 8.3 9.5 16.4 0 7.5 0 13.6-7.3 14.6zM121.8 43.5l2.8-4.1c1.8-2.6 3.8-2.8 6.7-1.2 1.7.7 4.7 3.1 8.9 3.1 3.1 0 4-1.1 4-2.4 0-5.7-22.7-4.6-22.7-21.7C121.5 6.9 130 0 141.4 0c6.2 0 12.2 2 14.9 3.9s2.8 4.1 1.6 6.7l-2.2 4.3c-1.8 3.5-4.2 2.9-6.6 1.7-2.7-1.2-4.7-2.4-7.9-2.4-3 0-4 1-4 2.5 0 6.1 22.8 4.2 22.8 21.4 0 9.3-7 17.4-19.7 17.4-7.4 0-14.4-2.8-17.5-5.2-1.9-1.5-3.3-3.4-1-6.8zM163 5.7c0-3.2 1.7-4.9 4.9-4.9h18.6c10.8 0 17.8 8.1 17.8 19.2s-7.1 19.4-17.8 19.4h-7.8v10.2c0 3.1-1.6 4.9-4.9 4.9h-6c-3.2 0-4.9-1.7-4.9-4.9l.1-43.9zM183.2 26c3.7 0 5.2-2.7 5.2-6s-1.5-5.8-4.9-5.8h-4.7V26h4.4zM233.8 0c17 0 28.4 12 28.4 27.4 0 15.8-11.4 28.1-28.4 28.1s-28.3-12.3-28.3-28.1C205.5 12 216.8 0 233.8 0zm0 41.1c7.2 0 12.1-5.9 12.1-13.7 0-7.5-4.9-13.1-12.1-13.1s-12 5.6-12 13.1c0 7.8 4.9 13.7 12 13.7zM292.6 0c17 0 28.4 12 28.4 27.4 0 15.8-11.4 28.1-28.4 28.1s-28.3-12.3-28.3-28.1C264.3 12 275.6 0 292.6 0zm0 41.1c7.2 0 12.1-5.9 12.1-13.7 0-7.5-4.9-13.1-12.1-13.1s-12 5.6-12 13.1c0 7.8 4.9 13.7 12 13.7zM323.9 5.7c0-3.2 1.7-4.9 4.9-4.9h7.2c2.8 0 4.6 1 5.8 3.3l8.8 17.3a102.39 102.39 0 0 1 4.6 9.9h.1s-.7-6.3-.7-9.9V5.7c0-3.2 1.6-4.9 4.9-4.9h6c3.2 0 4.9 1.6 4.9 4.9v44c0 3.1-1.7 4.8-4.9 4.8h-7.2a6 6 0 0 1-5.8-3.3l-8.8-17.1a94.22 94.22 0 0 1-4.6-9.8h-.1s.7 6.2.7 9.8v15.6c0 3.1-1.6 4.9-4.8 4.9h-6c-3.2 0-4.9-1.7-4.9-4.9v-44h-.1zM124.5 68.9h-3.9v-1.7h9.6v1.7h-3.9v16.6a11.31 11.31 0 0 0 1.4 5.8c1.5 2.3 4.2 3.6 7.6 3.6s6.3-1.4 7.7-3.8a11.19 11.19 0 0 0 1.4-5.7V68.9h-3.9v-1.7h9.6v1.7h-3.9v16.7a12.2 12.2 0 0 1-1.7 6.6c-1.8 2.8-5.1 4.4-9.1 4.4s-7.4-1.6-9.3-4.5a12.42 12.42 0 0 1-1.6-6.6V68.9zM153.7 94.5h3.9V68.9h-3.9v-1.7h5.5l18 24.7a7.58 7.58 0 0 1 .8 1.5h.1a6.7 6.7 0 0 1-.1-1.7V68.9h-3.9v-1.7h9.6v1.7h-3.9v27.3h-1.7l-18-24.7a7.58 7.58 0 0 1-.8-1.5h-.1a6.7 6.7 0 0 1 .1 1.7v22.9h3.9v1.6h-9.5v-1.7zM187.7 94.5h3.9V68.9h-3.9v-1.7h9.6v1.7h-3.9v25.6h3.9v1.6h-9.6v-1.6zM203.1 68.9H200v-1.7h8.5v1.7h-3.4l8.4 23.7c.2.7.4 1.6.4 1.6h.1l.4-1.6 8.4-23.7h-3.4v-1.7h8.5v1.7h-3.2l-9.8 27.3h-2.1zM230.5 94.5h3.9V68.9h-3.9v-1.7h19.9v5.4h-1.7v-3.7h-12.5v11.9h11.5v1.7h-11.5v12.1h13.3v-4h1.7v5.6h-20.8l.1-1.7zM256 94.5h3.9V68.9H256v-1.7h12.2a13.47 13.47 0 0 1 5 .7c2.7 1 4.5 3.3 4.5 7 0 4.5-2.6 7.8-6.9 8.3v.1a3.46 3.46 0 0 1 .8 1l5.5 9.3c.5.8 1 .9 2.1.9h.8v1.7h-.8c-2.5 0-2.8-.3-4-2.2l-5.2-8.7c-.9-1.5-1.4-1.9-3.4-1.9h-4.9v11.2h3.9v1.7H256v-1.8zm13.3-12.8c3.8 0 6.4-2.7 6.4-6.7a5.41 5.41 0 0 0-3.5-5.5 12.65 12.65 0 0 0-4.1-.6h-6.4v12.8h7.6zM285.6 88.6v2.1c0 2.6 3.3 4.2 6.9 4.2 4.1 0 7.1-2.1 7.1-5.9 0-4.2-3.5-5.7-7.5-7.1-3.8-1.4-7.8-2.8-7.8-7.8 0-4.7 3.8-7.3 8.4-7.3 3.9 0 8 1.5 8 4.3v2.8h-1.8v-2.2c0-2-3.3-3.1-6.2-3.1-3.7 0-6.5 1.9-6.5 5.4 0 3.9 3.3 5 7 6.5 4.1 1.6 8.2 3.1 8.2 8.4 0 4.7-3.7 7.9-9 7.9-3.8 0-8.7-1.7-8.7-5.5v-2.5l1.9-.2zM306.2 94.5h3.9V68.9h-3.9v-1.7h9.6v1.7h-3.9v25.6h3.9v1.6h-9.6v-1.6zM326.5 94.5h3.9V68.9h-9.2v4.9h-1.7v-6.5h23.7v6.5h-1.7v-4.9h-9.3v25.6h3.9v1.6h-9.6v-1.6zM352.9 94.5h3.9V83.6l-8.9-14.7H345v-1.7h8.4v1.7H350l7.1 11.9.5 1h.1a7.92 7.92 0 0 1 .6-1l7.1-11.9H362v-1.7h8.4v1.7h-2.9l-8.9 14.7v10.9h3.9v1.6h-9.6v-1.6z"/></svg>